--40001LOG 11:56:37:590272900 Waiting for file /home/seluser/videos/vid_chrome_or_firefox_40001* to be created...
Won't start video recording due to VIDEO env var false
ffmpeg version 2.8.17-0ubuntu0.1 Copyright (c) 2000-2020 the FFmpeg developers
  built with gcc 5.4.0 (Ubuntu 5.4.0-6ubuntu1~16.04.12) 20160609
  configuration: --prefix=/usr --extra-version=0ubuntu0.1 --build-suffix=-ffmpeg --toolchain=hardened --libdir=/usr/lib/x86_64-linux-gnu --incdir=/usr/include/x86_64-linux-gnu --cc=cc --cxx=g++ --enable-gpl --enable-shared --disable-stripping --disable-decoder=libopenjpeg --disable-decoder=libschroedinger --enable-avresample --enable-avisynth --enable-gnutls --enable-ladspa --enable-libass --enable-libbluray --enable-libbs2b --enable-libcaca --enable-libcdio --enable-libflite --enable-libfontconfig --enable-libfreetype --enable-libfribidi --enable-libgme --enable-libgsm --enable-libmodplug --enable-libmp3lame --enable-libopenjpeg --enable-libopus --enable-libpulse --enable-librtmp --enable-libschroedinger --enable-libshine --enable-libsnappy --enable-libsoxr --enable-libspeex --enable-libssh --enable-libtheora --enable-libtwolame --enable-libvorbis --enable-libvpx --enable-libwavpack --enable-libwebp --enable-libx265 --enable-libxvid --enable-libzvbi --enable-openal --enable-opengl --enable-x11grab --enable-libdc1394 --enable-libiec61883 --enable-libzmq --enable-frei0r --enable-libx264 --enable-libopencv
  libavutil      54. 31.100 / 54. 31.100
  libavcodec     56. 60.100 / 56. 60.100
  libavformat    56. 40.101 / 56. 40.101
  libavdevice    56.  4.100 / 56.  4.100
  libavfilter     5. 40.101 /  5. 40.101
  libavresample   2.  1.  0 /  2.  1.  0
  libswscale      3.  1.101 /  3.  1.101
  libswresample   1.  2.101 /  1.  2.101
  libpostproc    53.  3.100 / 53.  3.100
Input #0, x11grab, from ':45.0':
  Duration: N/A, start: 1603878998.410809, bitrate: N/A
    Stream #0:0: Video: rawvideo (BGR[0] / 0x524742), bgr0, 1366x768, 10 fps, 10 tbr, 1000k tbn, 10 tbc
[libx264 @ 0x247f320] using cpu capabilities: MMX2 SSE2Fast SSSE3 SSE4.2 AVX FMA3 AVX2 LZCNT BMI2
[libx264 @ 0x247f320] profile Constrained Baseline, level 3.2
[libx264 @ 0x247f320] 264 - core 148 r2643 5c65704 - H.264/MPEG-4 AVC codec - Copyleft 2003-2015 - http://www.videolan.org/x264.html - options: cabac=0 ref=1 deblock=0:0:0 analyse=0:0 me=dia subme=0 psy=1 psy_rd=1.00:0.00 mixed_ref=0 me_range=16 chroma_me=1 trellis=0 8x8dct=0 cqm=0 deadzone=21,11 fast_pskip=1 chroma_qp_offset=0 threads=3 lookahead_threads=1 sliced_threads=0 nr=0 decimate=1 interlaced=0 bluray_compat=0 constrained_intra=0 bframes=0 weightp=0 keyint=250 keyint_min=10 scenecut=0 intra_refresh=0 rc=crf mbtree=0 crf=23.0 qcomp=0.60 qpmin=0 qpmax=69 qpstep=4 ip_ratio=1.40 aq=0
Output #0, matroska, to '/home/seluser/videos/vid_chrome_or_firefox_40001.mkv':
  Metadata:
    encoder         : Lavf56.40.101
    Stream #0:0: Video: h264 (libx264) (H264 / 0x34363248), yuv420p, 1366x768, q=-1--1, 10 fps, 1k tbn, 10 tbc
    Metadata:
      encoder         : Lavc56.60.100 libx264
Stream mapping:
  Stream #0:0 -> #0:0 (rawvideo (native) -> h264 (libx264))
Press [q] to stop, [?] for help
[swscaler @ 0x248aca0] Warning: data is not aligned! This can lead to a speedloss
frame=    6 fps=0.0 q=12.0 size=      31kB time=00:00:00.20 bitrate=1274.6kbits/s    
frame=   12 fps= 10 q=9.0 size=      46kB time=00:00:00.80 bitrate= 470.0kbits/s    
frame=   20 fps= 12 q=9.0 size=      46kB time=00:00:01.60 bitrate= 236.9kbits/s    
frame=   25 fps= 11 q=9.0 size=      46kB time=00:00:02.10 bitrate= 181.0kbits/s    
frame=   33 fps= 12 q=9.0 size=      47kB time=00:00:02.90 bitrate= 131.8kbits/s    
frame=   38 fps= 12 q=9.0 size=      47kB time=00:00:03.40 bitrate= 112.7kbits/s    
frame=   44 fps= 12 q=9.0 size=      47kB time=00:00:04.00 bitrate=  96.2kbits/s    
frame=   48 fps= 11 q=9.0 size=      47kB time=00:00:04.40 bitrate=  87.7kbits/s    
frame=   54 fps= 11 q=9.0 size=      47kB time=00:00:05.00 bitrate=  77.5kbits/s    
frame=   60 fps= 11 q=9.0 size=      47kB time=00:00:05.60 bitrate=  69.4kbits/s    
frame=   66 fps= 11 q=9.0 size=      48kB time=00:00:06.20 bitrate=  63.0kbits/s    
frame=   69 fps= 11 q=9.0 size=      48kB time=00:00:06.50 bitrate=  60.2kbits/s    
frame=   75 fps= 10 q=9.0 size=      50kB time=00:00:07.10 bitrate=  57.1kbits/s    
frame=   82 fps= 11 q=9.0 size=      50kB time=00:00:07.80 bitrate=  52.3kbits/s    
frame=   86 fps= 10 q=9.0 size=      50kB time=00:00:08.20 bitrate=  49.8kbits/s    
frame=   89 fps= 10 q=9.0 size=      50kB time=00:00:08.50 bitrate=  48.1kbits/s    
frame=   94 fps= 10 q=9.0 size=      50kB time=00:00:09.00 bitrate=  45.6kbits/s    
frame=  102 fps= 10 q=9.0 size=      50kB time=00:00:09.80 bitrate=  42.1kbits/s    
frame=  110 fps= 11 q=9.0 size=      51kB time=00:00:10.60 bitrate=  39.1kbits/s    
frame=  115 fps= 10 q=9.0 size=      51kB time=00:00:11.10 bitrate=  37.5kbits/s    
frame=  120 fps= 10 q=9.0 size=      51kB time=00:00:11.60 bitrate=  35.9kbits/s    
frame=  126 fps= 10 q=9.0 size=      51kB time=00:00:12.20 bitrate=  34.4kbits/s    
frame=  133 fps= 10 q=9.0 size=      51kB time=00:00:12.90 bitrate=  32.7kbits/s    
frame=  138 fps= 10 q=9.0 size=      52kB time=00:00:13.40 bitrate=  31.5kbits/s    
frame=  143 fps= 10 q=9.0 size=      52kB time=00:00:13.90 bitrate=  30.5kbits/s    
frame=  146 fps= 10 q=9.0 size=      52kB time=00:00:14.20 bitrate=  29.9kbits/s    
frame=  150 fps= 10 q=9.0 size=      52kB time=00:00:14.60 bitrate=  29.2kbits/s    
frame=  157 fps= 10 q=9.0 size=      52kB time=00:00:15.30 bitrate=  27.9kbits/s    
frame=  162 fps= 10 q=9.0 size=      52kB time=00:00:15.80 bitrate=  27.2kbits/s    
frame=  166 fps= 10 q=9.0 size=      52kB time=00:00:16.20 bitrate=  26.5kbits/s    
frame=  170 fps=9.8 q=9.0 size=      53kB time=00:00:16.60 bitrate=  26.0kbits/s    
frame=  177 fps=9.9 q=9.0 size=      53kB time=00:00:17.30 bitrate=  25.1kbits/s    
frame=  180 fps=9.7 q=9.0 size=      53kB time=00:00:17.60 bitrate=  24.7kbits/s    
frame=  183 fps=9.4 q=9.0 size=      53kB time=00:00:17.90 bitrate=  24.3kbits/s    
frame=  186 fps=9.2 q=9.0 size=      53kB time=00:00:18.20 bitrate=  23.9kbits/s    
frame=  190 fps=9.1 q=9.0 size=      53kB time=00:00:18.60 bitrate=  23.5kbits/s    
frame=  194 fps=9.1 q=9.0 size=      54kB time=00:00:19.00 bitrate=  23.1kbits/s    
frame=  197 fps=8.8 q=9.0 size=      54kB time=00:00:19.30 bitrate=  22.8kbits/s    
frame=  200 fps=8.8 q=9.0 size=      54kB time=00:00:19.60 bitrate=  22.6kbits/s    
frame=  203 fps=8.7 q=9.0 size=      54kB time=00:00:19.90 bitrate=  22.3kbits/s    
frame=  206 fps=8.6 q=9.0 size=      54kB time=00:00:20.20 bitrate=  22.0kbits/s    
frame=  210 fps=8.6 q=9.0 size=      54kB time=00:00:20.60 bitrate=  21.6kbits/s    
frame=  212 fps=8.4 q=9.0 size=      55kB time=00:00:20.80 bitrate=  21.5kbits/s    
frame=  215 fps=8.4 q=9.0 size=      55kB time=00:00:21.10 bitrate=  21.2kbits/s    
frame=  221 fps=8.4 q=9.0 size=      55kB time=00:00:21.70 bitrate=  20.7kbits/s    
frame=  225 fps=8.4 q=9.0 size=      55kB time=00:00:22.10 bitrate=  20.4kbits/s    
frame=  227 fps=8.3 q=9.0 size=      55kB time=00:00:22.30 bitrate=  20.2kbits/s    
frame=  230 fps=8.2 q=9.0 size=      55kB time=00:00:22.60 bitrate=  20.0kbits/s    
frame=  235 fps=8.2 q=9.0 size=      55kB time=00:00:23.10 bitrate=  19.6kbits/s    
frame=  238 fps=8.1 q=9.0 size=      56kB time=00:00:23.40 bitrate=  19.4kbits/s    
frame=  242 fps=8.1 q=9.0 size=      56kB time=00:00:23.80 bitrate=  19.2kbits/s    
frame=  243 fps=8.0 q=9.0 size=      56kB time=00:00:23.90 bitrate=  19.1kbits/s    
frame=  245 fps=7.9 q=9.0 size=      56kB time=00:00:24.10 bitrate=  19.0kbits/s    
frame=  248 fps=7.8 q=9.0 size=      56kB time=00:00:24.40 bitrate=  18.8kbits/s    
frame=  250 fps=7.8 q=9.0 size=      56kB time=00:00:24.60 bitrate=  18.6kbits/s    
frame=  253 fps=7.7 q=6.0 size=      56kB time=00:00:24.90 bitrate=  18.5kbits/s    
frame=  256 fps=7.6 q=12.0 size=      97kB time=00:00:25.20 bitrate=  31.5kbits/s    
frame=  263 fps=7.7 q=9.0 size=      97kB time=00:00:25.90 bitrate=  30.7kbits/s    
frame=  268 fps=7.7 q=9.0 size=      97kB time=00:00:26.40 bitrate=  30.2kbits/s    
frame=  274 fps=7.7 q=9.0 size=      97kB time=00:00:27.00 bitrate=  29.6kbits/s    
frame=  278 fps=7.7 q=9.0 size=      98kB time=00:00:27.40 bitrate=  29.2kbits/s    
frame=  284 fps=7.7 q=9.0 size=      98kB time=00:00:28.00 bitrate=  28.6kbits/s    
frame=  288 fps=7.7 q=9.0 size=      98kB time=00:00:28.40 bitrate=  28.2kbits/s    
frame=  291 fps=7.6 q=9.0 size=      98kB time=00:00:28.70 bitrate=  28.0kbits/s    
frame=  293 fps=7.5 q=9.0 size=      98kB time=00:00:28.90 bitrate=  27.8kbits/s    
frame=  295 fps=7.4 q=9.0 size=      98kB time=00:00:29.10 bitrate=  27.6kbits/s    
frame=  297 fps=7.3 q=9.0 size=      98kB time=00:00:29.30 bitrate=  27.5kbits/s    
frame=  300 fps=7.2 q=9.0 size=      98kB time=00:00:29.60 bitrate=  27.2kbits/s    
frame=  305 fps=7.2 q=9.0 size=      99kB time=00:00:30.10 bitrate=  26.9kbits/s    
frame=  308 fps=7.2 q=9.0 size=      99kB time=00:00:30.40 bitrate=  26.6kbits/s    
frame=  312 fps=7.2 q=9.0 size=      99kB time=00:00:30.80 bitrate=  26.3kbits/s    
frame=  318 fps=7.3 q=9.0 size=      99kB time=00:00:31.40 bitrate=  25.8kbits/s    
frame=  321 fps=7.2 q=9.0 size=      99kB time=00:00:31.70 bitrate=  25.6kbits/s    
frame=  325 fps=7.2 q=9.0 size=      99kB time=00:00:32.10 bitrate=  25.4kbits/s    
frame=  328 fps=7.2 q=9.0 size=      99kB time=00:00:32.40 bitrate=  25.1kbits/s    
frame=  330 fps=7.2 q=9.0 size=      99kB time=00:00:32.60 bitrate=  25.0kbits/s    
frame=  334 fps=7.2 q=9.0 size=     100kB time=00:00:33.00 bitrate=  24.7kbits/s    
frame=  338 fps=7.2 q=9.0 size=     100kB time=00:00:33.40 bitrate=  24.5kbits/s    
frame=  342 fps=7.1 q=9.0 size=     100kB time=00:00:33.80 bitrate=  24.2kbits/s    
frame=  344 fps=7.1 q=9.0 size=     100kB time=00:00:34.00 bitrate=  24.1kbits/s    
frame=  346 fps=7.0 q=9.0 size=     100kB time=00:00:34.20 bitrate=  24.0kbits/s    
frame=  348 fps=7.0 q=9.0 size=     100kB time=00:00:34.40 bitrate=  23.9kbits/s    
frame=  350 fps=6.9 q=9.0 size=     100kB time=00:00:34.60 bitrate=  23.7kbits/s    
frame=  355 fps=6.9 q=9.0 size=     101kB time=00:00:35.10 bitrate=  23.5kbits/s    
frame=  358 fps=6.9 q=9.0 size=     101kB time=00:00:35.40 bitrate=  23.3kbits/s    
frame=  360 fps=6.8 q=9.0 size=     101kB time=00:00:35.60 bitrate=  23.2kbits/s    
frame=  363 fps=6.8 q=9.0 size=     101kB time=00:00:35.90 bitrate=  23.0kbits/s    
frame=  367 fps=6.8 q=9.0 size=     101kB time=00:00:36.30 bitrate=  22.8kbits/s    
frame=  370 fps=6.8 q=9.0 size=     101kB time=00:00:36.60 bitrate=  22.7kbits/s    
frame=  372 fps=6.8 q=9.0 size=     101kB time=00:00:36.80 bitrate=  22.5kbits/s    
frame=  374 fps=6.7 q=9.0 size=     101kB time=00:00:37.00 bitrate=  22.4kbits/s    
frame=  375 fps=6.6 q=9.0 size=     103kB time=00:00:37.10 bitrate=  22.7kbits/s    
frame=  376 fps=6.6 q=9.0 size=     103kB time=00:00:37.20 bitrate=  22.7kbits/s    
frame=  378 fps=6.5 q=9.0 size=     103kB time=00:00:37.40 bitrate=  22.6kbits/s    
frame=  380 fps=6.4 q=9.0 size=     103kB time=00:00:37.60 bitrate=  22.5kbits/s    
frame=  381 fps=6.4 q=9.0 size=     103kB time=00:00:37.70 bitrate=  22.5kbits/s    
frame=  382 fps=6.3 q=9.0 size=     103kB time=00:00:37.80 bitrate=  22.4kbits/s    
frame=  384 fps=6.3 q=9.0 size=     103kB time=00:00:38.00 bitrate=  22.3kbits/s    
frame=  386 fps=6.3 q=9.0 size=     104kB time=00:00:38.20 bitrate=  22.2kbits/s    
frame=  388 fps=6.2 q=9.0 size=     104kB time=00:00:38.40 bitrate=  22.1kbits/s    
frame=  392 fps=6.2 q=9.0 size=     104kB time=00:00:38.80 bitrate=  22.0kbits/s    
frame=  394 fps=6.2 q=9.0 size=     104kB time=00:00:39.00 bitrate=  21.9kbits/s    
frame=  396 fps=6.1 q=9.0 size=     104kB time=00:00:39.20 bitrate=  21.8kbits/s    
frame=  397 fps=6.1 q=9.0 size=     104kB time=00:00:39.30 bitrate=  21.7kbits/s    
frame=  398 fps=6.0 q=9.0 size=     104kB time=00:00:39.40 bitrate=  21.7kbits/s    
frame=  400 fps=6.0 q=9.0 size=     104kB time=00:00:39.60 bitrate=  21.6kbits/s    
frame=  401 fps=5.9 q=9.0 size=     104kB time=00:00:39.70 bitrate=  21.6kbits/s    
frame=  402 fps=5.8 q=9.0 size=     105kB time=00:00:39.80 bitrate=  21.5kbits/s    
frame=  403 fps=5.7 q=9.0 size=     105kB time=00:00:39.90 bitrate=  21.5kbits/s    
frame=  404 fps=5.6 q=9.0 size=     105kB time=00:00:40.00 bitrate=  21.4kbits/s    
frame=  405 fps=5.6 q=9.0 size=     105kB time=00:00:40.10 bitrate=  21.4kbits/s    
frame=  406 fps=5.5 q=9.0 size=     105kB time=00:00:40.20 bitrate=  21.4kbits/s    
frame=  407 fps=5.5 q=9.0 size=     105kB time=00:00:40.30 bitrate=  21.4kbits/s    
frame=  408 fps=5.4 q=9.0 size=     105kB time=00:00:40.40 bitrate=  21.3kbits/s    
frame=  410 fps=5.4 q=9.0 size=     105kB time=00:00:40.60 bitrate=  21.3kbits/s    
frame=  412 fps=5.4 q=9.0 size=     106kB time=00:00:40.80 bitrate=  21.2kbits/s    
frame=  414 fps=5.3 q=9.0 size=     106kB time=00:00:41.00 bitrate=  21.1kbits/s    
frame=  415 fps=5.3 q=9.0 size=     106kB time=00:00:41.10 bitrate=  21.1kbits/s    
frame=  417 fps=5.3 q=9.0 size=     106kB time=00:00:41.30 bitrate=  21.0kbits/s    
frame=  418 fps=5.2 q=9.0 size=     106kB time=00:00:41.40 bitrate=  21.0kbits/s    
frame=  419 fps=5.2 q=9.0 size=     106kB time=00:00:41.50 bitrate=  20.9kbits/s    
frame=  420 fps=5.2 q=9.0 size=     106kB time=00:00:41.60 bitrate=  20.9kbits/s    
frame=  421 fps=5.1 q=9.0 size=     108kB time=00:00:41.70 bitrate=  21.2kbits/s    
frame=  422 fps=5.0 q=9.0 size=     108kB time=00:00:41.80 bitrate=  21.1kbits/s    
frame=  423 fps=5.0 q=9.0 size=     108kB time=00:00:41.90 bitrate=  21.1kbits/s    
frame=  424 fps=4.9 q=9.0 size=     108kB time=00:00:42.00 bitrate=  21.1kbits/s    
frame=  425 fps=4.9 q=9.0 size=     108kB time=00:00:42.10 bitrate=  21.1kbits/s    
frame=  426 fps=4.8 q=9.0 size=     108kB time=00:00:42.20 bitrate=  21.0kbits/s    
frame=  427 fps=4.8 q=9.0 size=     109kB time=00:00:42.30 bitrate=  21.0kbits/s    
frame=  428 fps=4.7 q=9.0 size=     109kB time=00:00:42.40 bitrate=  21.0kbits/s    
frame=  429 fps=4.7 q=9.0 size=     109kB time=00:00:42.50 bitrate=  21.0kbits/s    
frame=  430 fps=4.7 q=9.0 size=     109kB time=00:00:42.60 bitrate=  20.9kbits/s    
frame=  432 fps=4.7 q=9.0 size=     109kB time=00:00:42.80 bitrate=  20.9kbits/s    
frame=  435 fps=4.7 q=9.0 size=     111kB time=00:00:43.10 bitrate=  21.0kbits/s    
frame=  437 fps=4.7 q=9.0 size=     111kB time=00:00:43.30 bitrate=  21.0kbits/s    
frame=  439 fps=4.6 q=9.0 size=     111kB time=00:00:43.50 bitrate=  20.9kbits/s    
frame=  441 fps=4.6 q=9.0 size=     111kB time=00:00:43.70 bitrate=  20.8kbits/s    
frame=  443 fps=4.6 q=9.0 size=     111kB time=00:00:43.90 bitrate=  20.7kbits/s    
frame=  445 fps=4.6 q=9.0 size=     111kB time=00:00:44.10 bitrate=  20.7kbits/s    
frame=  447 fps=4.6 q=9.0 size=     111kB time=00:00:44.30 bitrate=  20.6kbits/s    
frame=  450 fps=4.6 q=9.0 size=     111kB time=00:00:44.60 bitrate=  20.5kbits/s    
frame=  451 fps=4.6 q=9.0 size=     112kB time=00:00:44.70 bitrate=  20.4kbits/s    
frame=  453 fps=4.5 q=9.0 size=     112kB time=00:00:44.90 bitrate=  20.4kbits/s    
frame=  456 fps=4.5 q=9.0 size=     112kB time=00:00:45.20 bitrate=  20.3kbits/s    
frame=  458 fps=4.5 q=9.0 size=     112kB time=00:00:45.40 bitrate=  20.2kbits/s    
frame=  459 fps=4.5 q=9.0 size=     112kB time=00:00:45.50 bitrate=  20.2kbits/s    
frame=  460 fps=4.5 q=9.0 size=     112kB time=00:00:45.60 bitrate=  20.1kbits/s    
frame=  462 fps=4.5 q=9.0 size=     112kB time=00:00:45.80 bitrate=  20.0kbits/s    
frame=  464 fps=4.5 q=9.0 size=     112kB time=00:00:46.00 bitrate=  20.0kbits/s    
frame=  467 fps=4.4 q=9.0 size=     113kB time=00:00:46.30 bitrate=  19.9kbits/s    
frame=  468 fps=4.4 q=9.0 size=     113kB time=00:00:46.40 bitrate=  19.9kbits/s    
frame=  471 fps=4.4 q=9.0 size=     113kB time=00:00:46.70 bitrate=  19.8kbits/s    
frame=  472 fps=4.4 q=9.0 size=     113kB time=00:00:46.80 bitrate=  19.8kbits/s    
frame=  473 fps=4.4 q=9.0 size=     113kB time=00:00:46.90 bitrate=  19.7kbits/s    
frame=  474 fps=4.3 q=9.0 size=     113kB time=00:00:47.00 bitrate=  19.7kbits/s    
frame=  475 fps=4.3 q=9.0 size=     113kB time=00:00:47.10 bitrate=  19.6kbits/s    
frame=  476 fps=4.2 q=9.0 size=     115kB time=00:00:47.20 bitrate=  19.9kbits/s    
frame=  477 fps=4.2 q=9.0 size=     115kB time=00:00:47.30 bitrate=  19.9kbits/s    
frame=  478 fps=4.1 q=9.0 size=     115kB time=00:00:47.40 bitrate=  19.8kbits/s    
frame=  479 fps=4.1 q=9.0 size=     115kB time=00:00:47.50 bitrate=  19.8kbits/s    
frame=  480 fps=4.1 q=9.0 size=     115kB time=00:00:47.60 bitrate=  19.8kbits/s    
frame=  481 fps=4.0 q=9.0 size=     115kB time=00:00:47.70 bitrate=  19.8kbits/s    
frame=  482 fps=4.0 q=9.0 size=     115kB time=00:00:47.80 bitrate=  19.8kbits/s    
frame=  483 fps=4.0 q=9.0 size=     115kB time=00:00:47.90 bitrate=  19.7kbits/s    
frame=  484 fps=4.0 q=9.0 size=     116kB time=00:00:48.00 bitrate=  19.7kbits/s    
frame=  485 fps=3.9 q=9.0 size=     116kB time=00:00:48.10 bitrate=  19.7kbits/s    
frame=  486 fps=3.9 q=9.0 size=     116kB time=00:00:48.20 bitrate=  19.7kbits/s    
frame=  487 fps=3.9 q=9.0 size=     116kB time=00:00:48.30 bitrate=  19.7kbits/s    
frame=  488 fps=3.9 q=9.0 size=     116kB time=00:00:48.40 bitrate=  19.7kbits/s    
frame=  489 fps=3.8 q=9.0 size=     116kB time=00:00:48.50 bitrate=  19.6kbits/s    
frame=  490 fps=3.8 q=9.0 size=     116kB time=00:00:48.60 bitrate=  19.6kbits/s    
frame=  491 fps=3.8 q=9.0 size=     118kB time=00:00:48.70 bitrate=  19.8kbits/s    
frame=  492 fps=3.7 q=9.0 size=     118kB time=00:00:48.80 bitrate=  19.8kbits/s    
frame=  493 fps=3.7 q=9.0 size=     120kB time=00:00:48.90 bitrate=  20.0kbits/s    
frame=  494 fps=3.6 q=9.0 size=     120kB time=00:00:49.00 bitrate=  20.0kbits/s    
frame=  495 fps=3.6 q=9.0 size=     120kB time=00:00:49.10 bitrate=  20.0kbits/s    
frame=  496 fps=3.6 q=9.0 size=     120kB time=00:00:49.20 bitrate=  20.0kbits/s    
frame=  497 fps=3.6 q=9.0 size=     120kB time=00:00:49.30 bitrate=  19.9kbits/s    
frame=  498 fps=3.5 q=9.0 size=     122kB time=00:00:49.40 bitrate=  20.2kbits/s    
frame=  499 fps=3.5 q=9.0 size=     122kB time=00:00:49.50 bitrate=  20.1kbits/s    
frame=  500 fps=3.5 q=9.0 size=     122kB time=00:00:49.60 bitrate=  20.1kbits/s    
frame=  501 fps=3.4 q=9.0 size=     122kB time=00:00:49.70 bitrate=  20.1kbits/s    
frame=  502 fps=3.4 q=9.0 size=     122kB time=00:00:49.80 bitrate=  20.1kbits/s    
frame=  503 fps=3.4 q=6.0 size=     122kB time=00:00:49.90 bitrate=  20.1kbits/s    
frame=  504 fps=3.3 q=15.0 size=     123kB time=00:00:50.00 bitrate=  20.1kbits/s    
frame=  505 fps=3.3 q=13.0 size=     163kB time=00:00:50.10 bitrate=  26.7kbits/s    
frame=  506 fps=3.3 q=12.0 size=     163kB time=00:00:50.20 bitrate=  26.6kbits/s    
frame=  507 fps=3.2 q=11.0 size=     163kB time=00:00:50.30 bitrate=  26.6kbits/s    
frame=  508 fps=3.2 q=10.0 size=     164kB time=00:00:50.40 bitrate=  26.6kbits/s    
frame=  509 fps=3.2 q=10.0 size=     164kB time=00:00:50.50 bitrate=  26.6kbits/s    
frame=  510 fps=3.2 q=9.0 size=     164kB time=00:00:50.60 bitrate=  26.5kbits/s    
frame=  511 fps=3.1 q=9.0 size=     164kB time=00:00:50.70 bitrate=  26.5kbits/s    
frame=  512 fps=3.1 q=9.0 size=     165kB time=00:00:50.80 bitrate=  26.7kbits/s    
frame=  513 fps=3.0 q=9.0 size=     165kB time=00:00:50.90 bitrate=  26.6kbits/s    
frame=  514 fps=3.0 q=9.0 size=     167kB time=00:00:51.00 bitrate=  26.8kbits/s    
frame=  515 fps=3.0 q=9.0 size=     167kB time=00:00:51.10 bitrate=  26.8kbits/s    
frame=  516 fps=3.0 q=9.0 size=     167kB time=00:00:51.20 bitrate=  26.8kbits/s    
frame=  517 fps=3.0 q=9.0 size=     169kB time=00:00:51.30 bitrate=  27.0kbits/s    
frame=  518 fps=3.0 q=9.0 size=     169kB time=00:00:51.40 bitrate=  26.9kbits/s    
frame=  519 fps=3.0 q=9.0 size=     169kB time=00:00:51.50 bitrate=  26.9kbits/s    
frame=  520 fps=2.9 q=9.0 size=     169kB time=00:00:51.60 bitrate=  26.9kbits/s    
frame=  521 fps=2.9 q=9.0 size=     169kB time=00:00:51.70 bitrate=  26.8kbits/s    
frame=  522 fps=2.9 q=9.0 size=     170kB time=00:00:51.80 bitrate=  26.8kbits/s    
frame=  523 fps=2.9 q=9.0 size=     170kB time=00:00:51.90 bitrate=  26.8kbits/s    
frame=  524 fps=2.9 q=9.0 size=     170kB time=00:00:52.00 bitrate=  26.8kbits/s    
frame=  525 fps=2.9 q=9.0 size=     170kB time=00:00:52.10 bitrate=  26.7kbits/s    
frame=  526 fps=2.8 q=9.0 size=     170kB time=00:00:52.20 bitrate=  26.7kbits/s    
frame=  527 fps=2.8 q=9.0 size=     170kB time=00:00:52.30 bitrate=  26.7kbits/s    
frame=  528 fps=2.8 q=9.0 size=     170kB time=00:00:52.40 bitrate=  26.6kbits/s    
frame=  529 fps=2.8 q=9.0 size=     170kB time=00:00:52.50 bitrate=  26.6kbits/s    
frame=  530 fps=2.8 q=9.0 size=     171kB time=00:00:52.60 bitrate=  26.6kbits/s    
frame=  531 fps=2.7 q=9.0 size=     171kB time=00:00:52.70 bitrate=  26.5kbits/s    
frame=  532 fps=2.7 q=9.0 size=     171kB time=00:00:52.80 bitrate=  26.5kbits/s    
frame=  533 fps=2.7 q=9.0 size=     171kB time=00:00:52.90 bitrate=  26.5kbits/s    
frame=  534 fps=2.7 q=9.0 size=     171kB time=00:00:53.00 bitrate=  26.4kbits/s    
frame=  535 fps=2.6 q=9.0 size=     171kB time=00:00:53.10 bitrate=  26.4kbits/s    
frame=  536 fps=2.6 q=9.0 size=     171kB time=00:00:53.20 bitrate=  26.4kbits/s    
frame=  537 fps=2.6 q=10.0 size=     171kB time=00:00:53.30 bitrate=  26.3kbits/s    
frame=  538 fps=2.5 q=10.0 size=     172kB time=00:00:53.40 bitrate=  26.3kbits/s    
frame=  539 fps=2.5 q=10.0 size=     172kB time=00:00:53.50 bitrate=  26.4kbits/s    
frame=  540 fps=2.5 q=10.0 size=     173kB time=00:00:53.60 bitrate=  26.4kbits/s    
frame=  541 fps=2.5 q=10.0 size=     173kB time=00:00:53.70 bitrate=  26.4kbits/s    
frame=  542 fps=2.4 q=10.0 size=     175kB time=00:00:53.80 bitrate=  26.6kbits/s    
frame=  543 fps=2.4 q=10.0 size=     175kB time=00:00:53.90 bitrate=  26.6kbits/s    
frame=  544 fps=2.4 q=9.0 size=     175kB time=00:00:54.00 bitrate=  26.6kbits/s    
frame=  545 fps=2.4 q=9.0 size=     175kB time=00:00:54.10 bitrate=  26.6kbits/s    
frame=  546 fps=2.4 q=10.0 size=     176kB time=00:00:54.20 bitrate=  26.5kbits/s    
frame=  547 fps=2.4 q=10.0 size=     176kB time=00:00:54.30 bitrate=  26.5kbits/s    
frame=  548 fps=2.3 q=10.0 size=     176kB time=00:00:54.40 bitrate=  26.5kbits/s    
frame=  549 fps=2.3 q=10.0 size=     176kB time=00:00:54.50 bitrate=  26.5kbits/s    
frame=  550 fps=2.3 q=10.0 size=     178kB time=00:00:54.60 bitrate=  26.7kbits/s    
frame=  551 fps=2.3 q=10.0 size=     179kB time=00:00:54.70 bitrate=  26.7kbits/s    
frame=  552 fps=2.3 q=9.0 size=     179kB time=00:00:54.80 bitrate=  26.7kbits/s    
frame=  553 fps=2.2 q=9.0 size=     180kB time=00:00:54.90 bitrate=  26.9kbits/s    
frame=  554 fps=2.2 q=9.0 size=     180kB time=00:00:55.00 bitrate=  26.9kbits/s    
frame=  555 fps=2.2 q=9.0 size=     182kB time=00:00:55.10 bitrate=  27.1kbits/s    
frame=  556 fps=2.2 q=9.0 size=     182kB time=00:00:55.20 bitrate=  27.0kbits/s    
frame=  557 fps=2.2 q=9.0 size=     184kB time=00:00:55.30 bitrate=  27.3kbits/s    
frame=  558 fps=2.2 q=9.0 size=     184kB time=00:00:55.40 bitrate=  27.2kbits/s    
frame=  559 fps=2.1 q=9.0 size=     184kB time=00:00:55.50 bitrate=  27.2kbits/s    
frame=  560 fps=2.1 q=9.0 size=     185kB time=00:00:55.60 bitrate=  27.2kbits/s    
frame=  561 fps=2.1 q=9.0 size=     185kB time=00:00:55.70 bitrate=  27.2kbits/s    
frame=  562 fps=2.1 q=9.0 size=     185kB time=00:00:55.80 bitrate=  27.1kbits/s    
frame=  563 fps=2.1 q=9.0 size=     185kB time=00:00:55.90 bitrate=  27.1kbits/s    
frame=  564 fps=2.1 q=9.0 size=     185kB time=00:00:56.00 bitrate=  27.1kbits/s    
frame=  565 fps=2.1 q=9.0 size=     187kB time=00:00:56.10 bitrate=  27.2kbits/s    
frame=  566 fps=2.1 q=9.0 size=     187kB time=00:00:56.20 bitrate=  27.2kbits/s    
frame=  567 fps=2.1 q=9.0 size=     188kB time=00:00:56.30 bitrate=  27.4kbits/s    
frame=  568 fps=2.1 q=9.0 size=     188kB time=00:00:56.40 bitrate=  27.4kbits/s    
frame=  569 fps=2.1 q=9.0 size=     188kB time=00:00:56.50 bitrate=  27.3kbits/s    
frame=  570 fps=2.1 q=9.0 size=     189kB time=00:00:56.60 bitrate=  27.3kbits/s    
frame=  571 fps=2.1 q=9.0 size=     189kB time=00:00:56.70 bitrate=  27.3kbits/s    
frame=  572 fps=2.0 q=9.0 size=     189kB time=00:00:56.80 bitrate=  27.2kbits/s    
frame=  573 fps=2.0 q=9.0 size=     189kB time=00:00:56.90 bitrate=  27.2kbits/s    
frame=  574 fps=2.0 q=9.0 size=     191kB time=00:00:57.00 bitrate=  27.4kbits/s    
frame=  575 fps=2.0 q=9.0 size=     191kB time=00:00:57.10 bitrate=  27.3kbits/s    
frame=  576 fps=2.0 q=9.0 size=     192kB time=00:00:57.20 bitrate=  27.5kbits/s    
frame=  577 fps=1.9 q=9.0 size=     192kB time=00:00:57.30 bitrate=  27.5kbits/s    
frame=  578 fps=1.9 q=9.0 size=     192kB time=00:00:57.40 bitrate=  27.5kbits/s    
frame=  579 fps=1.9 q=9.0 size=     193kB time=00:00:57.50 bitrate=  27.4kbits/s    
frame=  580 fps=1.9 q=9.0 size=     193kB time=00:00:57.60 bitrate=  27.4kbits/s    
frame=  581 fps=1.9 q=9.0 size=     193kB time=00:00:57.70 bitrate=  27.4kbits/s    
frame=  582 fps=1.9 q=9.0 size=     193kB time=00:00:57.80 bitrate=  27.3kbits/s    
frame=  583 fps=1.9 q=9.0 size=     193kB time=00:00:57.90 bitrate=  27.3kbits/s    
frame=  584 fps=1.8 q=9.0 size=     193kB time=00:00:58.00 bitrate=  27.3kbits/s    
frame=  585 fps=1.8 q=9.0 size=     193kB time=00:00:58.10 bitrate=  27.3kbits/s    
frame=  586 fps=1.8 q=9.0 size=     193kB time=00:00:58.20 bitrate=  27.2kbits/s    
frame=  588 fps=1.8 q=9.0 size=     194kB time=00:00:58.40 bitrate=  27.2kbits/s    
frame=  589 fps=1.8 q=9.0 size=     194kB time=00:00:58.50 bitrate=  27.1kbits/s    
frame=  590 fps=1.8 q=9.0 size=     194kB time=00:00:58.60 bitrate=  27.1kbits/s    
frame=  592 fps=1.8 q=9.0 size=     194kB time=00:00:58.80 bitrate=  27.1kbits/s    
frame=  594 fps=1.8 q=9.0 size=     194kB time=00:00:59.00 bitrate=  27.0kbits/s    
frame=  597 fps=1.8 q=9.0 size=     195kB time=00:00:59.30 bitrate=  26.9kbits/s    
frame=  599 fps=1.8 q=9.0 size=     195kB time=00:00:59.50 bitrate=  26.8kbits/s    
frame=  601 fps=1.8 q=9.0 size=     195kB time=00:00:59.70 bitrate=  26.7kbits/s    
frame=  604 fps=1.8 q=9.0 size=     195kB time=00:01:00.00 bitrate=  26.6kbits/s    
frame=  606 fps=1.8 q=9.0 size=     195kB time=00:01:00.20 bitrate=  26.5kbits/s    
frame=  609 fps=1.8 q=9.0 size=     195kB time=00:01:00.50 bitrate=  26.4kbits/s    
frame=  611 fps=1.9 q=9.0 size=     195kB time=00:01:00.70 bitrate=  26.3kbits/s    
frame=  612 fps=1.9 q=9.0 size=     195kB time=00:01:00.80 bitrate=  26.3kbits/s    
frame=  615 fps=1.9 q=9.0 size=     195kB time=00:01:01.10 bitrate=  26.2kbits/s    
frame=  617 fps=1.9 q=9.0 size=     195kB time=00:01:01.30 bitrate=  26.1kbits/s    
frame=  618 fps=1.9 q=9.0 size=     196kB time=00:01:01.40 bitrate=  26.1kbits/s    
frame=  620 fps=1.9 q=9.0 size=     196kB time=00:01:01.60 bitrate=  26.1kbits/s    
frame=  621 fps=1.9 q=9.0 size=     196kB time=00:01:01.70 bitrate=  26.0kbits/s    
frame=  622 fps=1.8 q=9.0 size=     196kB time=00:01:01.80 bitrate=  26.0kbits/s    
frame=  623 fps=1.8 q=10.0 size=     196kB time=00:01:01.90 bitrate=  26.0kbits/s    
frame=  624 fps=1.8 q=9.0 size=     196kB time=00:01:02.00 bitrate=  25.9kbits/s    
frame=  625 fps=1.8 q=9.0 size=     197kB time=00:01:02.10 bitrate=  26.0kbits/s    
frame=  626 fps=1.8 q=9.0 size=     197kB time=00:01:02.20 bitrate=  26.0kbits/s    
frame=  627 fps=1.8 q=9.0 size=     197kB time=00:01:02.30 bitrate=  25.9kbits/s    
frame=  628 fps=1.8 q=9.0 size=     198kB time=00:01:02.40 bitrate=  26.0kbits/s    
frame=  629 fps=1.8 q=9.0 size=     198kB time=00:01:02.50 bitrate=  25.9kbits/s    
frame=  630 fps=1.8 q=9.0 size=     198kB time=00:01:02.60 bitrate=  25.9kbits/s    
frame=  631 fps=1.8 q=9.0 size=     198kB time=00:01:02.70 bitrate=  25.9kbits/s    
frame=  632 fps=1.8 q=9.0 size=     198kB time=00:01:02.80 bitrate=  25.8kbits/s    
frame=  633 fps=1.8 q=9.0 size=     198kB time=00:01:02.90 bitrate=  25.8kbits/s    
frame=  634 fps=1.8 q=9.0 size=     198kB time=00:01:03.00 bitrate=  25.8kbits/s    
frame=  635 fps=1.8 q=9.0 size=     199kB time=00:01:03.10 bitrate=  25.8kbits/s    
frame=  636 fps=1.8 q=9.0 size=     199kB time=00:01:03.20 bitrate=  25.7kbits/s    
frame=  637 fps=1.8 q=9.0 size=     199kB time=00:01:03.30 bitrate=  25.7kbits/s    
frame=  638 fps=1.7 q=9.0 size=     199kB time=00:01:03.40 bitrate=  25.7kbits/s    
frame=  639 fps=1.7 q=9.0 size=     199kB time=00:01:03.50 bitrate=  25.7kbits/s    
frame=  640 fps=1.7 q=9.0 size=     199kB time=00:01:03.60 bitrate=  25.7kbits/s    
frame=  641 fps=1.7 q=9.0 size=     200kB time=00:01:03.70 bitrate=  25.7kbits/s    
frame=  642 fps=1.7 q=9.0 size=     200kB time=00:01:03.80 bitrate=  25.7kbits/s    
frame=  643 fps=1.7 q=9.0 size=     200kB time=00:01:03.90 bitrate=  25.6kbits/s    
frame=  644 fps=1.7 q=9.0 size=     200kB time=00:01:04.00 bitrate=  25.6kbits/s    
frame=  645 fps=1.7 q=9.0 size=     200kB time=00:01:04.10 bitrate=  25.6kbits/s    
frame=  646 fps=1.7 q=9.0 size=     200kB time=00:01:04.20 bitrate=  25.6kbits/s    
frame=  647 fps=1.7 q=9.0 size=     201kB time=00:01:04.30 bitrate=  25.6kbits/s    
frame=  648 fps=1.7 q=9.0 size=     201kB time=00:01:04.40 bitrate=  25.6kbits/s    
frame=  649 fps=1.7 q=9.0 size=     201kB time=00:01:04.50 bitrate=  25.5kbits/s    
frame=  649 fps=1.7 q=-1.0 Lsize=     202kB time=00:01:04.90 bitrate=  25.5kbits/s    
video:197kB audio:0kB subtitle:0kB other streams:0kB global headers:0kB muxing overhead: 2.452536%
[libx264 @ 0x247f320] frame I:3     Avg QP:10.67  size: 36091
[libx264 @ 0x247f320] frame P:646   Avg QP: 9.10  size:   144
[libx264 @ 0x247f320] mb I  I16..4: 100.0%  0.0%  0.0%
[libx264 @ 0x247f320] mb P  I16..4:  0.1%  0.0%  0.0%  P16..4:  0.1%  0.0%  0.0%  0.0%  0.0%    skip:99.8%
[libx264 @ 0x247f320] coded y,uvDC,uvAC intra: 7.9% 5.4% 5.3% inter: 0.0% 0.0% 0.0%
[libx264 @ 0x247f320] i16 v,h,dc,p: 82% 16%  2%  0%
[libx264 @ 0x247f320] i8c dc,h,v,p: 88% 11%  1%  0%
[libx264 @ 0x247f320] kb/s:24.78
Exiting normally, received signal 2.
--40001LOG 12:03:13:354339600 Trapped SIGTERM or SIGINT so shutting down ffmpeg gracefully...
--40001LOG 12:03:15:212426400 Will kill VID_TOOL_PID=771 ...
--40001LOG 12:03:16:682116800 Tried to kill -SIGTERM VID_TOOL_PID=771
--40001LOG 12:03:16:722267300 Waiting up to 6s for VID_TOOL_PID=771 to end with SIGTERM...
--40001LOG 12:03:17:036352000 wait_pid successfully managed to SIGTERM:VID_TOOL_PID=771 within less than 6s
--40001LOG 12:03:17:099684500 Will try to fix the videos...
--40001LOG 12:03:19:084967200 Fixing perms for /home/seluser/videos/vid_chrome_or_firefox_40001.mkv*
--40001LOG 12:03:24:808642000 Changing video encoding from mkv to mp4...
--40001LOG 12:03:45:443563200 Conversion from mkv to mp4 FAILED! in within the 20s
--40001LOG 12:03:45:487147200 Optimizing /home/seluser/videos/vid_chrome_or_firefox_40001.mp4 for HTTP streaming...
Error opening file /home/seluser/videos/vid_chrome_or_firefox_40001.mp4: Invalid IsoMedia File
--40001LOG 12:03:45:550510600 MP4Box got errors meaning the mp4 video file is corrupted, trying again...
Error opening file /home/seluser/videos/vid_chrome_or_firefox_40001.mp4: Invalid IsoMedia File
--40001LOG 12:03:46:596806700 MP4Box got errors meaning the mp4 video file is corrupted, trying again...
Error opening file /home/seluser/videos/vid_chrome_or_firefox_40001.mp4: Invalid IsoMedia File
--40001LOG 12:03:47:646405600 MP4Box got errors meaning the mp4 video file is corrupted, trying again...
Error opening file /home/seluser/videos/vid_chrome_or_firefox_40001.mp4: Invalid IsoMedia File
--40001LOG 12:03:48:694763600 MP4Box got errors meaning the mp4 video file is corrupted, trying again...
Error opening file /home/seluser/videos/vid_chrome_or_firefox_40001.mp4: Invalid IsoMedia File
--40001LOG 12:03:49:748248700 MP4Box got errors meaning the mp4 video file is corrupted, trying again...
Error opening file /home/seluser/videos/vid_chrome_or_firefox_40001.mp4: Invalid IsoMedia File
--40001LOG 12:03:50:791642200 MP4Box got errors meaning the mp4 video file is corrupted, trying again...
Error opening file /home/seluser/videos/vid_chrome_or_firefox_40001.mp4: Invalid IsoMedia File
--40001LOG 12:03:51:840364900 MP4Box got errors meaning the mp4 video file is corrupted, trying again...
Error opening file /home/seluser/videos/vid_chrome_or_firefox_40001.mp4: Invalid IsoMedia File
--40001LOG 12:03:52:867288900 MP4Box got errors meaning the mp4 video file is corrupted, trying again...
--40001LOG 12:03:53:503287000 Failed! to mp4box_retry.sh within 8s
--40001LOG 12:03:53:510001700 ffmpeg shutdown complete.
